# xmcd
#
# Track frame offsets:
# 151
# 17481
# 33380
# 53847
# 70798
# 83601
# 99785
# 118497
# 138399
# 152410
# 171637
# 171943
# 172457
#
# Disc length: 2514 seconds
#
# Revision: 0
# Processed by: cddbd v1.4PL0 Copyright (c) Steve Scherf et al.
# Submitted via: Audion 3.0.2 (http://www.panic.com/audion/)
#
DISCID=ac09d00d
DTITLE=Cathy Rivers - Bleached
DYEAR=1900
DGENRE=
TTITLE0=Fast Girl
TTITLE1=Arms of Mexico
TTITLE2=What's Her Name
TTITLE3=Rain Song
TTITLE4=Twister
TTITLE5=Martyr
TTITLE6=Nobody's Baby
TTITLE7=Shotgun Romance
TTITLE8=You Break My Heart Every Time
TTITLE9=Fate Walks In The Toom
TTITLE10=
TTITLE11=
TTITLE12=13
EXTD=
EXTT0=
EXTT1=
EXTT2=
EXTT3=
EXTT4=
EXTT5=
EXTT6=
EXTT7=
EXTT8=
EXTT9=
EXTT10=
EXTT11=
EXTT12=
PLAYORDER=
